<?xml version="1.0" encoding="utf-8"?>
<!-- Generator: Adobe Illustrator 22.1.0, SVG Export Plug-In . SVG Version: 6.00 Build 0)  -->
<svg version="1.1" id="Layer_1" xmlns="http://www.w3.org/2000/svg" xmlns:xlink="http://www.w3.org/1999/xlink" x="0px" y="0px"
	 width="198.4px" height="113.4px" viewBox="0 0 198.4 113.4" style="enable-background:new 0 0 198.4 113.4;" xml:space="preserve"
	>
<style type="text/css">
	.st0{fill:none;stroke:#FFFFFF;stroke-width:3;stroke-linecap:round;stroke-miterlimit:10;}
	.st1{fill:#FFFFFF;}
</style>
<g>
	<line class="st0" x1="24.7" y1="98" x2="173.7" y2="98"/>
	<g>
		<path class="st1" d="M151.5,98V61.8c3.4,4.9,9,8.2,15.4,8.2c0.9,0,1.7-0.7,1.7-1.7s-0.7-1.7-1.7-1.7c-8.5,0-15.4-6.9-15.4-15.4
			v-0.1v-0.8c3.4,4.9,9,8.2,15.4,8.2c0.9,0,1.7-0.7,1.7-1.7c0-0.9-0.7-1.7-1.7-1.7c-8.5,0-15.4-6.9-15.4-15.4v-0.1V39
			c3.4,4.9,9,8.2,15.4,8.2c0.9,0,1.7-0.7,1.7-1.7c0-0.9-0.7-1.7-1.7-1.7c-8.5,0-15.4-6.9-15.4-15.4v-0.1v-0.8
			c3.4,4.9,9,8.2,15.4,8.2c0.9,0,1.7-0.7,1.7-1.7c0-0.9-0.7-1.7-1.7-1.7c-8.5,0-15.4-6.9-15.4-15.4c0-0.4-0.2-0.9-0.5-1.1
			c-0.3-0.3-0.7-0.5-1.2-0.5l0,0l0,0c-0.9,0-1.7,0.7-1.7,1.7c0,8.5-6.9,15.4-15.4,15.4c-0.9,0-1.7,0.7-1.7,1.7
			c0,0.9,0.7,1.7,1.7,1.7c6.4,0,12-3.3,15.4-8.2v0.8v0.1c0,8.5-6.9,15.4-15.4,15.4c-0.9,0-1.7,0.7-1.7,1.7c0,0.9,0.7,1.7,1.7,1.7
			c6.4,0,12-3.3,15.4-8.2v0.8V40c0,8.5-6.9,15.4-15.4,15.4c-0.9,0-1.7,0.7-1.7,1.7c0,0.9,0.7,1.7,1.7,1.7c6.4,0,12-3.3,15.4-8.2v0.8
			v0.1c0,8.5-6.9,15.4-15.4,15.4c-0.9,0-1.7,0.7-1.7,1.7s0.7,1.7,1.7,1.7c6.4,0,12-3.3,15.4-8.2V98"/>
		<path class="st1" d="M50.3,98V61.8c3.4,4.9,9,8.2,15.4,8.2c0.9,0,1.7-0.7,1.7-1.7s-0.7-1.7-1.7-1.7c-8.5,0-15.4-6.9-15.4-15.4
			v-0.1v-0.8c3.4,4.9,9,8.2,15.4,8.2c0.9,0,1.7-0.7,1.7-1.7c0-0.9-0.7-1.7-1.7-1.7c-8.5,0-15.4-6.9-15.4-15.4v-0.1V39
			c3.4,4.9,9,8.2,15.4,8.2c0.9,0,1.7-0.7,1.7-1.7c0-0.9-0.7-1.7-1.7-1.7c-8.5,0-15.4-6.9-15.4-15.4v-0.1v-0.8
			c3.4,4.9,9,8.2,15.4,8.2c0.9,0,1.7-0.7,1.7-1.7c0-0.9-0.7-1.7-1.7-1.7c-8.5,0-15.4-6.9-15.4-15.4c0-0.4-0.2-0.9-0.5-1.1
			c-0.3-0.3-0.7-0.5-1.2-0.5l0,0l0,0c-0.9,0-1.7,0.7-1.7,1.7c0,8.5-6.9,15.4-15.4,15.4c-0.9,0-1.7,0.7-1.7,1.7
			c0,0.9,0.7,1.7,1.7,1.7c6.4,0,12-3.3,15.4-8.2v0.8v0.1c0,8.5-6.9,15.4-15.4,15.4c-0.9,0-1.7,0.7-1.7,1.7c0,0.9,0.7,1.7,1.7,1.7
			c6.4,0,12-3.3,15.4-8.2v0.8V40c0,8.5-6.9,15.4-15.4,15.4c-0.9,0-1.7,0.7-1.7,1.7c0,0.9,0.7,1.7,1.7,1.7c6.4,0,12-3.3,15.4-8.2v0.8
			v0.1c0,8.5-6.9,15.4-15.4,15.4c-0.9,0-1.7,0.7-1.7,1.7s0.7,1.7,1.7,1.7c6.4,0,12-3.3,15.4-8.2V98"/>
		<path class="st1" d="M100.9,98V61.8c3.4,4.9,9,8.2,15.4,8.2c0.9,0,1.7-0.7,1.7-1.7s-0.7-1.7-1.7-1.7c-8.5,0-15.4-6.9-15.4-15.4
			v-0.1v-0.8c3.4,4.9,9,8.2,15.4,8.2c0.9,0,1.7-0.7,1.7-1.7c0-0.9-0.7-1.7-1.7-1.7c-8.5,0-15.4-6.9-15.4-15.4v-0.1V39
			c3.4,4.9,9,8.2,15.4,8.2c0.9,0,1.7-0.7,1.7-1.7c0-0.9-0.7-1.7-1.7-1.7c-8.5,0-15.4-6.9-15.4-15.4v-0.1v-0.8
			c3.4,4.9,9,8.2,15.4,8.2c0.9,0,1.7-0.7,1.7-1.7c0-0.9-0.7-1.7-1.7-1.7c-8.5,0-15.4-6.9-15.4-15.4c0-0.4-0.2-0.9-0.5-1.1
			c-0.3-0.3-0.7-0.5-1.2-0.5l0,0l0,0c-0.9,0-1.7,0.7-1.7,1.7c0,8.5-6.9,15.4-15.4,15.4c-0.9,0-1.7,0.7-1.7,1.7
			c0,0.9,0.7,1.7,1.7,1.7c6.4,0,12-3.3,15.4-8.2v0.8v0.1c0,8.5-6.9,15.4-15.4,15.4c-0.9,0-1.7,0.7-1.7,1.7c0,0.9,0.7,1.7,1.7,1.7
			c6.4,0,12-3.3,15.4-8.2v0.8V40c0,8.5-6.9,15.4-15.4,15.4c-0.9,0-1.7,0.7-1.7,1.7c0,0.9,0.7,1.7,1.7,1.7c6.4,0,12-3.3,15.4-8.2v0.8
			v0.1c0,8.5-6.9,15.4-15.4,15.4c-0.9,0-1.7,0.7-1.7,1.7s0.7,1.7,1.7,1.7c6.4,0,12-3.3,15.4-8.2V98"/>
	</g>
</g>
</svg>
