<svg id="Layer_1" data-name="Layer 1" xmlns="http://www.w3.org/2000/svg" viewBox="0 0 1000 1000"><defs><style>.cls-1{fill:#fff;}</style></defs><title>mail</title><rect width="1000" height="1000" rx="121" ry="121"/><g id="Icons_with_numbers" data-name="Icons with numbers"><g id="Group"><path id="Shape" class="cls-1" d="M584.58,523.66,826.3,730.85a49.14,49.14,0,0,1-33.62,13.33H207.32a49.27,49.27,0,0,1-33.73-13.24L415.42,523.66l84.58,74ZM500,548.84,173.7,269.15a49.14,49.14,0,0,1,33.62-13.33H792.68a49.27,49.27,0,0,1,33.73,13.24ZM841.85,704.4l-236-200.55,236-205.27V704.4Zm-683.7,0V298.71l236,205.14-236,200.55Z"/></g></g></svg>