<?xml version="1.0" encoding="utf-8"?>
<!-- Generator: Adobe Illustrator 22.1.0, SVG Export Plug-In . SVG Version: 6.00 Build 0)  -->
<svg version="1.1" id="Layer_1" xmlns="http://www.w3.org/2000/svg" xmlns:xlink="http://www.w3.org/1999/xlink" x="0px" y="0px"
	 width="500px" height="500px" viewBox="0 0 500 500" style="enable-background:new 0 0 500 500;" xml:space="preserve">
<style type="text/css">
	.Drop_x0020_Shadow{fill:none;}
	.Round_x0020_Corners_x0020_2_x0020_pt{fill:#FFFFFF;stroke:#231F20;stroke-miterlimit:10;}
	.Live_x0020_Reflect_x0020_X{fill:none;}
	.Bevel_x0020_Soft{fill:url(#SVGID_1_);}
	.Dusk{fill:#FFFFFF;}
	.Foliage_GS{fill:#FFDD00;}
	.Pompadour_GS{fill-rule:evenodd;clip-rule:evenodd;fill:#44ADE2;}
	.st0{fill:#1B4227;}
	.st1{fill:none;}
	.st2{fill:#FFFFFF;}
	.st3{fill:#FFFFFF;stroke:#FFFFFF;stroke-width:5;stroke-miterlimit:10;}
	.st4{fill:#1B4227;stroke:#1B4227;stroke-width:0.75;stroke-miterlimit:10;}
</style>
<linearGradient id="SVGID_1_" gradientUnits="userSpaceOnUse" x1="0" y1="0" x2="0.7071" y2="0.7071">
	<stop  offset="0" style="stop-color:#DEDFE3"/>
	<stop  offset="0.1738" style="stop-color:#D8D9DD"/>
	<stop  offset="0.352" style="stop-color:#C9CACD"/>
	<stop  offset="0.5323" style="stop-color:#B4B5B8"/>
	<stop  offset="0.7139" style="stop-color:#989A9C"/>
	<stop  offset="0.8949" style="stop-color:#797C7E"/>
	<stop  offset="1" style="stop-color:#656B6C"/>
</linearGradient>
<g>
	<circle class="st0" cx="250" cy="250" r="250"/>
	<g>
		<path class="st1" d="M400.6,191.7c-2.3-1.7-5.1-2.8-6.9-5.1c-3.6-4.8-0.7-11.7,3.3-16.2c2.4-2.7,5.2-5,7.5-7.9
			c1.9-2.3,4.8-6.4,3.5-9.5c-1-2.4-3.9-3.1-6.3-3.2c-5.7-0.3-11.5,1.2-16.5,4.1c-5.3,3-9,7.4-12.4,12.4c-2.4,3.5-5.1,6.9-8.1,10
			c-2.9,3-9.6,10.1-14,5.8c-0.8-0.8-1.4-1.7-2.3-2.3c-3-2-8.9-1.5-12.1-0.4c-3.7,1.2-7.2,3.2-10.5,5.4c-4.5,2.9-8.6,6.6-11.8,10.9
			c-2.1,2.9-3.8,6.1-5.2,9.4c-1.1,2.6-2.3,5.1-2.8,7.9c-0.6,3.1-0.8,6.3-1.6,9.4c-1.1,4-4.3,9-9,7.7c-1.9-0.5-3.7-1.5-4.8-3.2
			c-0.5-0.8-0.9-1.7-1.5-2.5c-2.2-3-6.8-3.4-10.2-1.8c-3.4,1.6-5.8,4.7-7.7,7.9c-6.2,10.2-10.3,22.5-12.5,34.2
			c2.6-1.6,4.2-5.2,6.3-7.4c2.6-2.7,5.5-5.3,8.5-7.5c4.2-3.2,8.9-6.6,7.7-12.7c-0.4-1.8-1-4.4,0.8-5.1c0.9-0.3,1.8,0,2.4,0.8
			c1.6,2.2,0,5.2,1.2,7.4c9.9-5.4,19.8-11,29.5-16.8c1.7-1,3.4-2,4.7-3.4c1.2-1.2,2.1-2.6,3-4c5.8-9,11.9-17.9,18.3-26.5
			c0.5-0.7,1.1-1.5,2-1.8c1.1-0.4,2.1,0.1,2.8,1c0.1,0.7,0.2,1.4,0.3,2.1c-0.2,1.8-0.7,3.5-1.8,5.2c-1.5,2.4-3.6,4.3-5.2,6.6
			c-1.8,2.6-3.5,5.3-5.1,8.1c-0.7,1.1,0.7,1.1,1.4,0.7c14.5-7.8,28.9-15.6,43.4-23.4c1.5-0.8,3.1-1.7,4.8-1.9c0.9-0.1,2.1,0.1,2.4,1
			c0.4,1.1-0.8,2-1.8,2.5c-5.8,3.2-11.7,6.3-17.5,9.5c6.8,0.6,13.6,0.2,20.3-1.3c1.4-0.3,2.8-0.7,4.1-0.3s2.6,1.5,2.4,2.9
			c-0.1,1.1-1.1,1.9-2.2,2.2c-1,0.3-2.1,0.2-3.2,0.1c-16-1.2-32.2,2.1-46.4,9.5c-18.2,9.5-34.5,22.4-53.2,31
			c1.7-0.1,3.4-0.3,5.1-0.4c11-1.1,21.9-3.1,32.6-6c2.3-0.6,5-1.2,6.8,0.4c0.3,0.3,0.5,0.6,0.6,0.9c0.3,0.9-0.5,1.8-1.3,2.4
			c-1.2,0.9-2.7,1.3-4.1,1.6c-3.7,0.8-7.6,0.5-11.4,0.8c-4,0.3-7.9,1.3-11.9,2c-3.9,0.7-7.9,0.9-11.9,1.3c-2.2,0.2-4.3,0.7-6.4,1.4
			c-4.6,1.4-9,3.7-12.8,6.6c-4,3-7.5,6.7-11,10.2c-0.7,0.7-1.9,2-1.1,3c0.6,0.7,1.8,0.5,2.5,0.6c10.5,1.4,20.9-2.2,30.2-6.5
			c10.2-4.7,20.1-10.6,31.1-13c9.1-2,19.1-1.5,27.2-6.2c0.6-0.4,1.3-0.8,1.7-1.4c1.7-2.4-0.8-5.3-2.8-7.5c-2.5-2.8-4.5-6.8-2.9-10.2
			c1.4-3.1,5-4.4,8.2-5.4c9.8-3.1,19.7-6.1,29.5-9.2c5.3-1.7,10.8-3.4,15.2-6.9c1-0.8,1.9-1.7,2.4-2.8
			C404.9,196.3,402.9,193.3,400.6,191.7z M317.6,248.4L317.6,248.4C317.6,248.4,317.6,248.4,317.6,248.4
			C317.7,248.4,317.6,248.4,317.6,248.4z"/>
		<path class="st1" d="M207.5,193.8c-3.8-3.7-10.7-1.6-14.8-4.9c-3.5-2.9-3.4-8.2-3-12.7c1.2-16,0.7-32.1-1.4-47.9
			c-0.5-4-2.1-8.9-6.1-9.4c-3.8-0.5-6.5,3.5-9.4,6.1c-2.6,2.3-6.4,3.6-9.4,1.9c-1.8-1-2.9-2.9-4-4.7c-3-5.1-6.2-10.2-10.7-14.1
			c-4.5-3.9-10.6-6.4-16.4-5.2c-5.8,1.2-10.8,6.8-10,12.7c0.8,6.2,7,10,12.5,13c5.8,3.1,11.7,6.3,18,8.3c3.4,1.1,7.1,2,9.8,4.5
			c3.7,3.5,3,8.3-0.1,11.8c-1.8,2.1-4,4.1-6,5.9c-2,1.7-3.9,3.6-5,6c-0.7,1.6-1.1,3.3-1.5,5c-0.4,1.7-0.8,3.5-0.2,5.2
			c0.8,2.3,3,3.1,4.9,4.2c1.8,1.1,3.7,2.2,5.5,3.2c3.6,2.2,7.2,4.5,10.4,7.2c2,1.7,4.5,2.7,6.5,4.5c1.8,1.7,3.2,3.9,4.7,5.9
			c1.2,1.5,2.5,3,3.4,4.7c0.9,1.8,1.1,3.7,1.7,5.5c0.7,2.1,1.4,4.2,2,6.4c0.8,3,1.2,6.2,2.2,9.2c1.3,4,4,7.3,6.8,10.3
			c1.4,1.5,3,3,4.5,4.5c1.1,1,2.2,2.8,3.9,2.9c0.2-1,0-2.4-0.3-3.6c-0.2-1-0.5-2-0.7-2.8c-0.8-3.2-1.9-6.4-2.9-9.5
			c-0.3-1-0.6-2-1.1-3c-0.3-0.7-0.8-1.9-1-2.7c-0.2-1-1.1-2.1-1.6-2.9c-0.9-1.6-1.5-3.4-2.3-5c-2.2-5-3.7-10.5-6.8-15.2
			c-0.6-0.9-1.2-1.7-1.6-2.6c-0.7-1.6-1.1-3.3-1.8-5c-1.2-2.7-2.7-5.5-4.1-8.1c-0.3-0.5-0.7-1.1-1.2-1.4c0,0,0-0.1,0-0.1
			c-0.1-0.1-0.1-0.2-0.2-0.2c-0.5-0.7-1.2-1.2-2-1.5c-0.7-0.3-1.4-0.3-2.1-0.5c-0.9-0.2-1.6-0.6-2.4-1c-0.6-0.3-1.2-0.5-1.8-0.8
			c-1-0.5-2-1.2-3-1.7c-1.1-0.5-2.3-1-3.4-1.5c-0.8-0.3-1.5-0.7-2.1-1.4c-0.1-0.2-0.2-0.3-0.2-0.5c0-0.2,0-0.4,0.2-0.5
			c0.1-0.1,0.2-0.1,0.3-0.1c0.8-0.2,1.8-0.2,2.6,0c0.8,0.2,1.6,0.6,2.4,0.9c1,0.5,2,1,3.1,1.4c1.2,0.5,2.4,0.9,3.6,1.4
			c0.4,0.2,0.8,0.4,1.2,0.1c0.3-0.2,0.4-0.6,0.3-0.9c-0.2-0.5-0.3-1.2-0.6-1.7c-0.4-1.1-1-2.2-1.8-3c-1.2-2.2-2.5-4.3-3.7-6.3
			c-0.2-0.4-0.4-0.8-0.7-1.2c-1-1.6-2-3.2-2.8-4.9c-0.8-1.5-1.4-3.1-1.9-4.7c-0.1-0.3-0.1-0.7,0-0.9c0.1-0.3,0.4-0.5,0.7-0.6
			c2.4-1,3.9,3.4,4.8,5c0.4,0.7,1.1,1.5,1.9,1.4c0.8-0.1,1.2-0.9,1.5-1.6c2-4.9,4-9.9,6.1-14.8c0.5-1.3,1.7-2.9,3-2.2
			c1,0.5,0.9,2,0.6,3.1c-1.7,5.9-4.1,11.5-7.2,16.8c-0.5,0.9-1.1,1.8-1.1,2.9c0,0.9,0.4,1.7,0.8,2.5c7.3,14.8,14.6,29.6,21.9,44.3
			c0.8-1.8,1.5-3.6,2.3-5.4c0.2-0.6,0.5-1.1,1-1.4c1-0.5,2.2,0.6,2.3,1.8c0.1,1.1-0.6,2.2-1.1,3.2c-1.9,3.9-1.7,8.6-0.6,12.8
			c1.1,4.2,3.2,8,5.3,11.9c0.4-2.7,0.8-5.3,1.2-8c1.2-8,2.5-16.3,0.9-24.3C209.7,197.5,209.1,195.3,207.5,193.8z"/>
		<path class="st2" d="M262.6,264.3c3.5-3.6,7-7.2,11-10.2c3.9-2.9,8.2-5.1,12.8-6.6c2.1-0.7,4.2-1.1,6.4-1.4
			c4-0.4,7.9-0.6,11.9-1.3c4-0.7,7.9-1.7,11.9-2c3.8-0.3,7.7,0,11.4-0.8c1.5-0.3,2.9-0.8,4.1-1.6c0.8-0.6,1.5-1.5,1.3-2.4
			c-0.1-0.4-0.4-0.7-0.6-0.9c-1.8-1.6-4.5-1-6.8-0.4c-10.7,2.9-21.6,4.9-32.6,6c-1.7,0.2-3.4,0.3-5.1,0.4c18.7-8.6,35-21.5,53.2-31
			c14.2-7.4,30.5-10.8,46.4-9.5c1.1,0.1,2.2,0.2,3.2-0.1c1-0.3,2-1.1,2.2-2.2c0.2-1.4-1.1-2.6-2.4-2.9s-2.8,0-4.1,0.3
			c-6.6,1.5-13.5,1.9-20.3,1.3c5.8-3.2,11.7-6.3,17.5-9.5c1-0.5,2.1-1.4,1.8-2.5c-0.3-0.9-1.5-1.1-2.4-1c-1.7,0.2-3.3,1.1-4.8,1.9
			c-14.5,7.8-28.9,15.6-43.4,23.4c-0.7,0.4-2.1,0.4-1.4-0.7c1.6-2.8,3.3-5.5,5.1-8.1c1.6-2.3,3.8-4.2,5.2-6.6
			c1.1-1.7,1.6-3.4,1.8-5.2c0-0.7-0.1-1.4-0.3-2.1c-0.7-0.9-1.6-1.4-2.8-1c-0.8,0.3-1.4,1-2,1.8c-6.4,8.6-12.5,17.4-18.3,26.5
			c-0.9,1.4-1.8,2.8-3,4c-1.4,1.4-3,2.4-4.7,3.4c-9.7,5.8-19.6,11.4-29.5,16.8c-1.2-2.2,0.4-5.2-1.2-7.4c-0.6-0.7-1.5-1.1-2.4-0.8
			c-1.7,0.7-1.2,3.2-0.8,5.1c1.3,6.1-3.4,9.5-7.7,12.7c-3,2.3-5.9,4.8-8.5,7.5c-2.1,2.2-3.8,5.8-6.3,7.4l3,2.8
			C260.7,266.3,262,265,262.6,264.3z"/>
		<g>
			<path class="st1" d="M400.6,191.7c-2.3-1.7-5.1-2.8-6.9-5.1c-3.6-4.8-0.7-11.7,3.3-16.2c2.4-2.7,5.2-5,7.5-7.9
				c1.9-2.3,4.8-6.4,3.5-9.5c-1-2.4-3.9-3.1-6.3-3.2c-5.7-0.3-11.5,1.2-16.5,4.1c-5.3,3-9,7.4-12.4,12.4c-2.4,3.5-5.1,6.9-8.1,10
				c-2.9,3-9.6,10.1-14,5.8c-0.8-0.8-1.4-1.7-2.3-2.3c-3-2-8.9-1.5-12.1-0.4c-3.7,1.2-7.2,3.2-10.5,5.4c-4.5,2.9-8.6,6.6-11.8,10.9
				c-2.1,2.9-3.8,6.1-5.2,9.4c-1.1,2.6-2.3,5.1-2.8,7.9c-0.6,3.1-0.8,6.3-1.6,9.4c-1.1,4-4.3,9-9,7.7c-1.9-0.5-3.7-1.5-4.8-3.2
				c-0.5-0.8-0.9-1.7-1.5-2.5c-2.2-3-6.8-3.4-10.2-1.8c-3.4,1.6-5.8,4.7-7.7,7.9c-6.2,10.2-10.3,22.5-12.5,34.2l3,2.8
				c0.6,0.7,1.8,0.5,2.5,0.6c10.5,1.4,20.9-2.2,30.2-6.5c10.2-4.7,20.1-10.6,31.1-13c9.1-2,19.1-1.5,27.2-6.2
				c0.6-0.4,1.3-0.8,1.7-1.4c1.7-2.4-0.8-5.3-2.8-7.5c-2.5-2.8-4.5-6.8-2.9-10.2c1.4-3.1,5-4.4,8.2-5.4c9.8-3.1,19.7-6.1,29.5-9.2
				c5.3-1.7,10.8-3.4,15.2-6.9c1-0.8,1.9-1.7,2.4-2.8C404.9,196.3,402.9,193.3,400.6,191.7z"/>
			<path class="st2" d="M203.2,207.4c0.5-1,1.1-2.1,1.1-3.2c-0.1-1.1-1.3-2.3-2.3-1.8c-0.5,0.3-0.8,0.9-1,1.4
				c-0.8,1.8-1.5,3.6-2.3,5.4c-7.3-14.8-14.6-29.6-21.9-44.3c-0.4-0.8-0.8-1.6-0.8-2.5c0-1,0.6-2,1.1-2.9c3.1-5.3,5.5-11,7.2-16.8
				c0.3-1.1,0.5-2.6-0.6-3.1c-1.2-0.6-2.4,0.9-3,2.2c-2,4.9-4,9.9-6.1,14.8c-0.3,0.7-0.7,1.5-1.5,1.6c-0.8,0.1-1.5-0.7-1.9-1.4
				c-0.9-1.5-2.4-5.9-4.8-5c-0.3,0.1-0.6,0.3-0.7,0.6c-0.1,0.3-0.1,0.6,0,0.9c0.5,1.6,1.2,3.2,1.9,4.7c0.9,1.7,1.9,3.3,2.8,4.9
				c0.2,0.4,0.5,0.8,0.7,1.2c1.1,2,2.5,4.1,3.7,6.3c0.8,0.8,1.4,1.9,1.8,3c0.3,0.5,0.4,1.1,0.6,1.7c0.1,0.3,0,0.7-0.3,0.9
				c-0.4,0.3-0.8,0-1.2-0.1c-1.2-0.5-2.4-0.9-3.6-1.4c-1-0.4-2-0.9-3.1-1.4c-0.8-0.3-1.5-0.7-2.4-0.9c-0.8-0.2-1.7-0.2-2.6,0
				c-0.1,0-0.2,0.1-0.3,0.1c-0.2,0.1-0.2,0.3-0.2,0.5c0,0.2,0.1,0.4,0.2,0.5c0.5,0.6,1.3,1.1,2.1,1.4c1.1,0.5,2.3,0.9,3.4,1.5
				c1,0.5,2,1.2,3,1.7c0.6,0.3,1.2,0.5,1.8,0.8c0.8,0.4,1.5,0.8,2.4,1c0.7,0.1,1.4,0.2,2.1,0.5c0.8,0.3,1.5,0.8,2,1.5
				c0.1,0.1,0.1,0.2,0.2,0.2c0,0,0,0.1,0,0.1c0.5,0.4,0.9,0.9,1.2,1.4c1.5,2.6,3,5.4,4.1,8.1c0.7,1.6,1.1,3.4,1.8,5
				c0.4,0.9,1,1.8,1.6,2.6c3,4.6,4.6,10.1,6.8,15.2c0.7,1.7,1.4,3.4,2.3,5c0.4,0.8,1.3,1.9,1.6,2.9c0.2,0.8,0.6,2,1,2.7
				c0.5,1,0.8,2,1.1,3c1,3.2,2.1,6.3,2.9,9.5l2.9-5.4c-2.1-3.8-4.2-7.7-5.3-11.9C201.5,215.9,201.4,211.3,203.2,207.4z"/>
			<path class="st3" d="M397.6,184.4c-5.6-11.4,18.8-20.4,14.1-32.6c-1.3-3.5-4.6-5.9-8.3-6.4c-18.2-2.6-30.8,13.3-41.1,27.2
				c-1.2,1.7-2.6,3.4-4.6,4.1c-2.6,0.9-5.3-0.2-7.9-0.9c-13.2-3.6-27.5,3.3-36.3,13.8c-8.7,10.5-14.1,18.7-17.3,32
				c-2.6-9.7-15.8-5.7-23.7,0.6c-7.9,6.2-10.9,16.6-14.2,26c-1.6,4.5-3.3,9-5.2,13.4c-1.9,4.4-4,8.8-6.2,13.1
				c-2.2,4.3-4.5,8.5-7,12.7c-2.5,4.1-5.1,8.2-7.9,12.2c-0.8,1.1-1.5,2.2-2.3,3.3c-0.5,0.7-1.2,1.4-1.6,2.2
				c-0.4,0.8-0.7,1.6-1.3,2.2c-0.3,0.3-0.8,0.5-1.2,0.5c-0.4,0-1.2,0-1.3-0.5c-0.3-1.2-0.7-2.4-0.7-3.7c0-1.3,0-2.7-0.1-4
				c-0.2-2.1-0.4-4.2-0.7-6.2c-0.2-1.5-0.5-3-0.7-4.6c-1.7-10.9-5.6-21.2-8.1-31.9c-2.1-8.7-3.3-17.8-1.9-26.7
				c1.2-8.2,4.6-16,4.7-24.3c0.1-8.3-4.4-17.6-12.6-18.9c-2-0.3-4-0.1-5.8-0.8c-5.4-2-5.5-9.5-5-15.2c1.3-13.6,1.2-27.3-0.5-40.8
				c-0.8-6.8-3.9-15.2-10.7-15.3c-6.6-0.1-10.6,8.1-17.1,9.2c-4.7-8.4-9.7-17.3-18.1-22c-2-1.1-4.1-1.8-6.3-2.2
				c-4.2-0.8-8.7-0.4-12.5,1.6c-2.9,1.5-6.7,4.8-7.8,7.9c-3.1,8.6,4.5,18.1,11.5,22.2c8.4,4.9,18.3,6.6,26.7,11.5
				c1.1,0.6,2.3,1.5,2.6,2.7c0.3,1.2-0.3,2.4-0.9,3.4c-4.3,6.7-12.7,11-14.1,18.8c-1.4,7.7,5,14.7,11.7,18.8
				c6.7,4,14.6,6.8,19.6,12.8c7.5,9,6.5,22.6,12.7,32.5c3.4,5.4,8.7,9.4,12.4,14.6c3.8,5.4,5.7,11.8,7.3,18.1
				c11.3,45.1,8.8,92.5,6.1,138.9c-0.2,3.6-0.4,7.2-1.7,10.5c0.1,0.1,0.2,0.2,0.3,0.2c2.2,1.3,4.9,2,7.3,2.7c0.3,0.1,0.7,0.2,1,0.3
				c0,0,0.1,0,0.1,0c0.5-0.3,1-0.6,1.4-0.9c-0.1-2.9-0.2-5.8-0.2-8.7c-0.7-38.4-1-78.6,16.6-112.7c4.4-8.6,10.4-17,19.2-21
				c7.6-3.5,16.4-3.2,24.6-5.1c17-3.8,31.3-16.8,48.6-18.8c6.2-0.7,12.7,0,18.4-2.5c6.6-2.9,11-12.6,3.5-17
				c-1.4-0.8-2.4-2.1-2.7-3.7c-0.7-3.1,2.1-4.4,4.5-5.1l39.5-13.3c6.2-2.1,13.7-6.5,12-12.8C406.9,190.9,400,189.2,397.6,184.4z
				 M210.6,213.9c-0.1,1.5-0.2,2.9-0.4,4.3c-0.2,1.4-0.4,2.9-0.7,4.3c-0.3,1.4-0.6,2.9-0.9,4.3c-0.4,1.4-0.8,2.8-1.2,4.2
				c-0.5,1.4-0.9,2.7-1.5,4.1c-0.1,0.3-0.3,0.7-0.4,1c-0.1,0.3-0.2,0.7-0.4,1c-0.1,0.2-0.4,0.4-0.6,0.5c-0.3,0.1-0.6,0.2-0.9,0.2
				c-0.3,0-0.6,0-0.8,0.1c-0.3,0-0.6-0.1-0.8-0.2c-0.2-0.1-0.5-0.2-0.8-0.3c-0.6-0.2-1.1-0.4-1.6-0.6c-1.1-0.5-2-1.2-2.9-2
				c-0.9-0.8-1.7-1.7-2.4-2.7c-0.7-1-1.3-2.1-1.8-3.2c-0.2-0.4-0.3-0.8-0.5-1.2c-1.8-4.6-2.3-9.5-3.8-14.1
				c-4.2-13-15.4-22.5-27.1-29.6c-4.6-2.8-9.8-5.9-10.9-11.1c-0.9-4.6,1.8-9.2,5.1-12.5c2.3-2.3,5-4.3,6.9-7c2-2.6,3.1-6.2,1.8-9.2
				c-1.2-2.9-4.2-4.5-7.1-5.8c-8.9-3.9-18.6-6.4-26.3-12.3c-4-3-7.5-7.4-7.3-12.3c0.2-4.7,4-8.8,8.5-10.2c4.5-1.4,9.5-0.2,13.6,2.2
				c4,2.5,7.1,6.2,9.7,10.1c1.8,2.8,3.4,5.8,5.9,8.1c2.5,2.3,6,3.7,9.2,2.6c2.3-0.8,4-2.8,5.7-4.5c1.8-1.7,4.1-3.3,6.5-2.8
				c3.6,0.7,5,5,5.5,8.6c2.4,15.3,3.1,30.9,2.2,46.4c-0.2,3.2-0.4,6.5,0.4,9.6c0.8,3.1,2.9,6.1,5.9,7.1c3,1,6.5,0,9.3,1.4
				c2.9,1.5,3.9,5.2,4.4,8.4c0.2,1.4,0.4,2.9,0.5,4.3c0.1,1.5,0.2,2.9,0.2,4.4C210.7,211,210.7,212.5,210.6,213.9z M403.9,198.9
				c-0.4,1.2-1.4,2.1-2.4,2.8c-4.4,3.5-9.9,5.2-15.2,6.9c-9.8,3.1-19.7,6.1-29.5,9.2c-3.2,1-6.8,2.3-8.2,5.4
				c-1.5,3.4,0.4,7.4,2.9,10.2c2,2.1,4.5,5.1,2.8,7.5c-0.4,0.6-1.1,1-1.7,1.4c-8.1,4.6-18.1,4.2-27.2,6.2c-11,2.4-20.9,8.2-31.1,13
				c-9.4,4.3-19.8,7.9-30.2,6.5c-0.8-0.1-2,0.1-2.5-0.6l-3-2.8c2.2-11.7,6.3-24,12.5-34.2c2-3.2,4.3-6.3,7.7-7.9
				c3.4-1.6,7.9-1.2,10.2,1.8c0.6,0.8,1,1.7,1.5,2.5c1.2,1.7,2.9,2.7,4.8,3.2c4.7,1.3,7.9-3.7,9-7.7c0.8-3.1,1-6.3,1.6-9.4
				c0.6-2.7,1.7-5.3,2.8-7.9c1.4-3.3,3.1-6.5,5.2-9.4c3.2-4.4,7.3-8,11.8-10.9c3.3-2.1,6.7-4.1,10.5-5.4c3.2-1,9.1-1.6,12.1,0.4
				c0.9,0.6,1.5,1.5,2.3,2.3c4.3,4.4,11.1-2.8,14-5.8c3-3.1,5.7-6.5,8.1-10c3.4-5,7.1-9.4,12.4-12.4c5-2.8,10.8-4.3,16.5-4.1
				c2.3,0.1,5.3,0.8,6.3,3.2c1.3,3.1-1.6,7.2-3.5,9.5c-2.3,2.8-5,5.2-7.5,7.9c-4,4.4-6.9,11.4-3.3,16.2c1.7,2.3,4.5,3.4,6.9,5.1
				C402.9,193.3,404.9,196.3,403.9,198.9z"/>
		</g>
		<path class="st4" d="M169.4,384.1c0,0,0,0.1,0,0.1c0.1,0,0.1-0.1,0.1-0.1C169.5,384.1,169.4,384.1,169.4,384.1z"/>
		<path class="st4" d="M189.9,410.3C189.9,410.3,189.9,410.3,189.9,410.3c0.1-0.1,0.1-0.1,0.1-0.2c0,0,0,0,0,0
			C190,410.1,189.9,410.2,189.9,410.3z"/>
		<polygon points="220,146.2 220,146.2 220,146.2 		"/>
		<path d="M317.6,248.4C317.6,248.4,317.7,248.4,317.6,248.4C317.6,248.4,317.6,248.4,317.6,248.4L317.6,248.4z"/>
	</g>
</g>
</svg>
